<svg width="32" height="32" viewBox="0 0 32 32" fill="none" xmlns="http://www.w3.org/2000/svg">
<g clip-path="url(#clip0_21_27)">
<path d="M16.3985 30.6831C13.78 30.6831 11.4272 30.0759 9.33999 28.8615C7.29076 27.6472 5.67794 25.9395 4.50153 23.7385C3.32512 21.4995 2.73691 18.881 2.73691 15.8831C2.73691 12.8851 3.32512 10.2856 4.50153 8.08461C5.71589 5.88359 7.34768 4.1759 9.39691 2.96154C11.4461 1.70923 13.78 1.08308 16.3985 1.08308C20.0036 1.08308 22.9067 1.99385 25.1077 3.81538C27.3467 5.59897 28.7697 8.06564 29.3769 11.2154H23.0585C22.679 9.84923 21.901 8.76769 20.7246 7.97077C19.5861 7.17384 18.1251 6.77538 16.3415 6.77538C15.0513 6.77538 13.8179 7.11692 12.6415 7.8C11.5031 8.48308 10.5733 9.50769 9.8523 10.8738C9.16922 12.202 8.82768 13.8718 8.82768 15.8831C8.82768 17.8564 9.16922 19.5262 9.8523 20.8923C10.5733 22.2585 11.5031 23.3021 12.6415 24.0231C13.8179 24.7062 15.0513 25.0477 16.3415 25.0477C18.1631 25.0477 19.6241 24.6492 20.7246 23.8523C21.8251 23.0554 22.6031 21.9549 23.0585 20.5508H29.3769C28.6179 23.6626 27.1379 26.1292 24.9369 27.9508C22.7359 29.7723 19.8897 30.6831 16.3985 30.6831Z" fill="black"/>
</g>
<defs>
<clipPath id="clip0_21_27">
<rect width="32" height="32" fill="white"/>
</clipPath>
</defs>
</svg>
